<?xml version="1.0" encoding="UTF-8"?>
<!-- Generated by Pixelmator Pro 4.3 -->
<svg viewBox="0 0 452 70" xmlns="http://www.w3.org/2000/svg">
    <g id="SIDELOAD">
        <path id="path1" fill="#ffffff" stroke="none" d="M 397.167969 69 L 397.167969 62.52002 L 416.60791 62.52002 C 421.791992 62.52002 426.36792 61.384033 430.335938 59.112 C 434.303955 56.839966 437.399902 53.704041 439.624023 49.703979 C 441.848145 45.703979 442.959961 41.096008 442.959961 35.880005 C 442.959961 30.727966 441.840088 26.160034 439.600098 22.176025 C 437.359863 18.191956 434.256104 15.072021 430.288086 12.815979 C 426.320068 10.559998 421.76001 9.432007 416.60791 9.432007 L 397.359863 9.432007 L 397.359863 2.952026 L 416.751953 2.952026 C 421.583984 2.952026 426.031982 3.776001 430.095947 5.424011 C 434.160156 7.072021 437.704102 9.375977 440.728027 12.335999 C 443.751953 15.296021 446.095947 18.783997 447.76001 22.799988 C 449.424072 26.81604 450.256104 31.208008 450.256104 35.976013 C 450.256104 40.680054 449.424072 45.047974 447.76001 49.080017 C 446.095947 53.112 443.768066 56.615967 440.775879 59.59198 C 437.783936 62.567993 434.256104 64.880005 430.191895 66.528015 C 426.12793 68.176025 421.711914 69 416.944092 69 Z M 392.8479 69 L 392.8479 2.952026 L 399.904053 2.952026 L 399.904053 69 Z M 322.528076 69 L 349.552002 2.952026 L 354.832031 2.952026 L 381.664063 69 L 374.031982 69 L 350.751953 10.679993 L 353.488037 10.679993 L 330.015991 69 Z M 334.864014 51.815979 L 334.864014 45.624023 L 369.424072 45.624023 L 369.424072 51.815979 Z M 286.192017 69.960022 C 281.52002 69.960022 277.176025 69.088013 273.160034 67.343994 C 269.144043 65.599976 265.63208 63.16803 262.624023 60.047974 C 259.615967 56.927979 257.271973 53.304016 255.592041 49.176025 C 253.911987 45.047974 253.072021 40.616028 253.072021 35.880005 C 253.072021 31.112 253.904053 26.680054 255.567993 22.583984 C 257.231934 18.487976 259.560059 14.895996 262.552002 11.807983 C 265.543945 8.719971 269.031982 6.312012 273.015991 4.583984 C 277 2.855957 281.328003 1.992004 286 1.992004 C 290.671997 1.992004 295.007935 2.855957 299.008057 4.583984 C 303.008057 6.312012 306.504028 8.719971 309.495972 11.807983 C 312.488037 14.895996 314.823975 18.503967 316.504028 22.632019 C 318.184082 26.76001 319.023926 31.208008 319.023926 35.976013 C 319.023926 40.712036 318.192017 45.143982 316.528076 49.271973 C 314.864014 53.400024 312.536011 57.007996 309.543945 60.096008 C 306.552002 63.184021 303.072021 65.599976 299.104004 67.343994 C 295.135986 69.088013 290.832031 69.960022 286.192017 69.960022 Z M 286 63.192017 C 290.992065 63.192017 295.416016 62.007996 299.271973 59.640015 C 303.128052 57.271973 306.167969 54.032043 308.391968 49.919983 C 310.615967 45.807983 311.728027 41.128052 311.728027 35.880005 C 311.728027 31.975952 311.088013 28.376038 309.807983 25.080017 C 308.527954 21.783997 306.736084 18.911987 304.432007 16.463989 C 302.12793 14.015991 299.416016 12.119995 296.296021 10.776001 C 293.176025 9.432007 289.744019 8.76001 286 8.76001 C 281.040039 8.76001 276.63208 9.927979 272.776001 12.263977 C 268.919922 14.600037 265.887939 17.807983 263.679932 21.888 C 261.471924 25.968018 260.368042 30.631958 260.368042 35.880005 C 260.368042 39.783997 261.008057 43.407959 262.287964 46.752014 C 263.567993 50.096008 265.352051 52.992004 267.640015 55.440002 C 269.927979 57.888 272.640015 59.791992 275.776001 61.151978 C 278.911987 62.512024 282.319946 63.192017 286 63.192017 Z M 209.536011 69 L 209.536011 2.952026 L 216.592041 2.952026 L 216.592041 69 Z M 214.192017 69 L 214.192017 62.567993 L 250.57605 62.567993 L 250.57605 69 Z M 152.991943 69 L 152.991943 2.952026 L 160.047974 2.952026 L 160.047974 69 Z M 157.647949 69 L 157.647949 62.567993 L 196.47998 62.567993 L 196.47998 69 Z M 157.647949 38.280029 L 157.647949 32.088013 L 193.407959 32.088013 L 193.407959 38.280029 Z M 157.647949 9.384033 L 157.647949 2.952026 L 195.952026 2.952026 L 195.952026 9.384033 Z M 86.368042 69 L 86.368042 62.52002 L 105.807983 62.52002 C 110.992065 62.52002 115.567993 61.384033 119.536011 59.112 C 123.504028 56.839966 126.599976 53.704041 128.823975 49.703979 C 131.047974 45.703979 132.160034 41.096008 132.160034 35.880005 C 132.160034 30.727966 131.040039 26.160034 128.800049 22.176025 C 126.559937 18.191956 123.456055 15.072021 119.488037 12.815979 C 115.52002 10.559998 110.959961 9.432007 105.807983 9.432007 L 86.560059 9.432007 L 86.560059 2.952026 L 105.952026 2.952026 C 110.784058 2.952026 115.231934 3.776001 119.296021 5.424011 C 123.359985 7.072021 126.904053 9.375977 129.927979 12.335999 C 132.952026 15.296021 135.296021 18.783997 136.959961 22.799988 C 138.624023 26.81604 139.456055 31.208008 139.456055 35.976013 C 139.456055 40.680054 138.624023 45.047974 136.959961 49.080017 C 135.296021 53.112 132.968018 56.615967 129.975952 59.59198 C 126.984009 62.567993 123.456055 64.880005 119.391968 66.528015 C 115.328003 68.176025 110.911987 69 106.144043 69 Z M 82.047974 69 L 82.047974 2.952026 L 89.104004 2.952026 L 89.104004 69 Z M 58.192017 69 L 58.192017 2.952026 L 65.248047 2.952026 L 65.248047 69 Z M 23.296021 69.960022 C 18.143921 69.960022 13.712036 68.992004 10 67.05603 C 6.287964 65.119995 3.040039 62.376038 0.255981 58.823975 L 5.104004 54.023987 C 7.375977 57.192017 10 59.544006 12.975952 61.080017 C 15.952026 62.616028 19.488037 63.383972 23.583984 63.383972 C 27.807983 63.383972 31.223999 62.424011 33.832031 60.504028 C 36.440063 58.583984 37.744019 55.92804 37.744019 52.536011 C 37.744019 49.880005 37.144043 47.712036 35.94397 46.031982 C 34.744019 44.35199 33.160034 42.976013 31.192017 41.903992 C 29.223999 40.83197 27.063965 39.880005 24.712036 39.047974 C 22.359985 38.216003 20.008057 37.335999 17.656006 36.40802 C 15.303955 35.47998 13.144043 34.320007 11.176025 32.927979 C 9.208008 31.536011 7.624023 29.744019 6.42395 27.552002 C 5.223999 25.359985 4.624023 22.567993 4.624023 19.176025 C 4.624023 15.623962 5.488037 12.567993 7.215942 10.007996 C 8.94397 7.447998 11.312012 5.471985 14.319946 4.080017 C 17.328003 2.687988 20.751953 1.992004 24.592041 1.992004 C 28.880005 1.992004 32.712036 2.823975 36.088013 4.487976 C 39.463989 6.151978 42.271973 8.407959 44.511963 11.255981 L 39.664063 16.05603 C 37.615967 13.59198 35.375977 11.728027 32.94397 10.463989 C 30.511963 9.200012 27.680054 8.567993 24.447998 8.567993 C 20.608032 8.567993 17.527954 9.463989 15.208008 11.255981 C 12.887939 13.048035 11.728027 15.544006 11.728027 18.744019 C 11.728027 21.208008 12.328003 23.208008 13.527954 24.744019 C 14.728027 26.280029 16.312012 27.559998 18.280029 28.583984 C 20.248047 29.608032 22.407959 30.528015 24.76001 31.343994 C 27.112061 32.160034 29.463989 33.047974 31.81604 34.007996 C 34.167969 34.968018 36.328003 36.175964 38.296021 37.632019 C 40.264038 39.088013 41.848022 40.959961 43.047974 43.247986 C 44.248047 45.536011 44.848022 48.42395 44.848022 51.911987 C 44.848022 57.640015 42.911987 62.079956 39.040039 65.231995 C 35.167969 68.384033 29.920044 69.960022 23.296021 69.960022 Z"/>
    </g>
</svg>
